<svg width="2401" height="2400" viewBox="0 0 2401 2400" fill="none" xmlns="http://www.w3.org/2000/svg">
<path d="M545.097 923.999C769.051 923.999 950.601 1105.55 950.601 1329.5H848.768C840.001 1169.4 707.387 1042.27 545.091 1042.27C501.167 1042.27 459.332 1051.6 421.536 1068.43C320.073 1113.59 247.822 1212.75 241.428 1329.5H139.593C139.593 1105.55 321.144 923.999 545.097 923.999ZM511.302 1329.5H309.152C315.44 1240.4 371.073 1164.86 449.016 1130.17C468.511 1121.49 489.409 1115.37 511.302 1112.25V1329.5ZM578.892 1112.25C688.056 1127.87 773.178 1218.02 781.046 1329.5H578.892V1112.25Z" fill="url(#paint0_linear_491_522)"/>
<path d="M1346.52 1122.09C1372.08 1122.09 1392.35 1129.83 1407.35 1145.31C1422.58 1160.8 1430.2 1182.3 1430.2 1209.82V1330H1367.53V1218.3C1367.53 1205.03 1363.97 1194.83 1356.84 1187.71C1349.96 1180.33 1340.38 1176.65 1328.09 1176.65C1315.8 1176.65 1306.09 1180.33 1298.97 1187.71C1292.08 1194.83 1288.64 1205.03 1288.64 1218.3V1330H1225.98V1218.3C1225.98 1205.03 1222.41 1194.83 1215.28 1187.71C1208.4 1180.33 1198.82 1176.65 1186.53 1176.65C1174.24 1176.65 1164.54 1180.33 1157.41 1187.71C1150.53 1194.83 1147.09 1205.03 1147.09 1218.3V1330H1084.05V1124.3H1147.09V1150.11C1153.48 1141.5 1161.83 1134.75 1172.15 1129.83C1182.48 1124.67 1194.15 1122.09 1207.17 1122.09C1222.66 1122.09 1236.42 1125.41 1248.46 1132.04C1260.75 1138.68 1270.34 1148.14 1277.22 1160.43C1284.34 1149.12 1294.05 1139.91 1306.34 1132.78C1318.63 1125.65 1332.02 1122.09 1346.52 1122.09ZM1567.92 1332.95C1547.77 1332.95 1529.58 1328.65 1513.36 1320.05C1497.39 1311.45 1484.73 1299.16 1475.39 1283.18C1466.3 1267.21 1461.76 1248.53 1461.76 1227.15C1461.76 1206.02 1466.42 1187.46 1475.76 1171.49C1485.1 1155.27 1497.88 1142.86 1514.1 1134.25C1530.32 1125.65 1548.51 1121.35 1568.66 1121.35C1588.81 1121.35 1607 1125.65 1623.22 1134.25C1639.44 1142.86 1652.22 1155.27 1661.56 1171.49C1670.9 1187.46 1675.57 1206.02 1675.57 1227.15C1675.57 1248.29 1670.77 1266.96 1661.19 1283.18C1651.85 1299.16 1638.95 1311.45 1622.48 1320.05C1606.26 1328.65 1588.08 1332.95 1567.92 1332.95ZM1567.92 1278.39C1579.97 1278.39 1590.16 1273.97 1598.52 1265.12C1607.12 1256.27 1611.42 1243.62 1611.42 1227.15C1611.42 1210.68 1607.25 1198.03 1598.89 1189.18C1590.78 1180.33 1580.7 1175.91 1568.66 1175.91C1556.37 1175.91 1546.17 1180.33 1538.06 1189.18C1529.95 1197.78 1525.9 1210.44 1525.9 1227.15C1525.9 1243.62 1529.83 1256.27 1537.7 1265.12C1545.81 1273.97 1555.88 1278.39 1567.92 1278.39ZM1801.54 1271.02L1846.14 1124.3H1913.24L1840.24 1330H1762.46L1689.47 1124.3H1756.93L1801.54 1271.02ZM2033.4 1332.95C2013.25 1332.95 1995.06 1328.65 1978.84 1320.05C1962.87 1311.45 1950.21 1299.16 1940.87 1283.18C1931.78 1267.21 1927.24 1248.53 1927.24 1227.15C1927.24 1206.02 1931.9 1187.46 1941.24 1171.49C1950.58 1155.27 1963.36 1142.86 1979.58 1134.25C1995.8 1125.65 2013.99 1121.35 2034.14 1121.35C2054.29 1121.35 2072.48 1125.65 2088.7 1134.25C2104.92 1142.86 2117.7 1155.27 2127.04 1171.49C2136.38 1187.46 2141.05 1206.02 2141.05 1227.15C2141.05 1248.29 2136.25 1266.96 2126.67 1283.18C2117.33 1299.16 2104.43 1311.45 2087.96 1320.05C2071.74 1328.65 2053.56 1332.95 2033.4 1332.95ZM2033.4 1278.39C2045.45 1278.39 2055.64 1273.97 2064 1265.12C2072.6 1256.27 2076.9 1243.62 2076.9 1227.15C2076.9 1210.68 2072.73 1198.03 2064.37 1189.18C2056.26 1180.33 2046.18 1175.91 2034.14 1175.91C2021.85 1175.91 2011.65 1180.33 2003.54 1189.18C1995.43 1197.78 1991.38 1210.44 1991.38 1227.15C1991.38 1243.62 1995.31 1256.27 2003.18 1265.12C2011.29 1273.97 2021.36 1278.39 2033.4 1278.39ZM2203.98 1332.95C2192.92 1332.95 2183.83 1329.76 2176.7 1323.37C2169.82 1316.73 2166.38 1308.62 2166.38 1299.04C2166.38 1289.21 2169.82 1280.97 2176.7 1274.34C2183.83 1267.7 2192.92 1264.38 2203.98 1264.38C2214.79 1264.38 2223.64 1267.7 2230.52 1274.34C2237.65 1280.97 2241.21 1289.21 2241.21 1299.04C2241.21 1308.62 2237.65 1316.73 2230.52 1323.37C2223.64 1329.76 2214.79 1332.95 2203.98 1332.95Z" fill="url(#paint1_linear_491_522)"/>
<defs>
<linearGradient id="paint0_linear_491_522" x1="139.593" y1="1126.75" x2="950.604" y2="1126.75" gradientUnits="userSpaceOnUse">
<stop stop-color="#78B3D0"/>
<stop offset="1" stop-color="#1E81B0"/>
</linearGradient>
<linearGradient id="paint1_linear_491_522" x1="1061.19" y1="1200.5" x2="2256.19" y2="1200.5" gradientUnits="userSpaceOnUse">
<stop stop-color="#1E81B0"/>
<stop offset="1" stop-color="#78B3D0"/>
</linearGradient>
</defs>
</svg>
