<svg width="1200" height="1200" viewBox="0 0 1200 1200" fill="none" xmlns="http://www.w3.org/2000/svg">
<path d="M600.001 401.823C818.902 401.823 996.357 579.277 996.357 798.179H896.822C888.252 641.684 758.629 517.424 599.995 517.424C557.062 517.425 516.171 526.55 479.228 542.993C380.054 587.138 309.434 684.058 303.185 798.179H203.646C203.646 579.277 381.1 401.823 600.001 401.823ZM566.969 798.179H369.381C375.527 711.089 429.904 637.253 506.088 603.341C525.143 594.86 545.569 588.879 566.969 585.824V798.179ZM633.034 585.832C739.735 601.098 822.937 689.214 830.628 798.179H633.034V585.832Z" fill="url(#paint0_linear_491_516)"/>
<defs>
<linearGradient id="paint0_linear_491_516" x1="203.646" y1="600.001" x2="996.36" y2="600.001" gradientUnits="userSpaceOnUse">
<stop stop-color="#78B3D0"/>
<stop offset="1" stop-color="#1E81B0"/>
</linearGradient>
</defs>
</svg>
