<svg width="401" height="401" viewBox="0 0 401 401" fill="none" xmlns="http://www.w3.org/2000/svg">
<path d="M200.244 134.9C273.211 134.9 332.363 194.05 332.363 267.018H299.182C296.325 214.853 253.119 173.433 200.242 173.433C185.931 173.433 172.3 176.475 159.986 181.956C126.928 196.671 103.388 228.978 101.305 267.018H68.1254C68.1255 194.051 127.277 134.9 200.244 134.9ZM189.233 267.018H123.371C125.42 237.988 143.544 213.375 168.939 202.071C175.29 199.244 182.1 197.252 189.233 196.234V267.018ZM211.254 196.235C246.821 201.324 274.556 230.696 277.119 267.018H211.254V196.235Z" fill="url(#paint0_linear_491_516)"/>
<defs>
<linearGradient id="paint0_linear_491_516" x1="68.1254" y1="200.959" x2="332.364" y2="200.959" gradientUnits="userSpaceOnUse">
<stop stop-color="#78B3D0"/>
<stop offset="1" stop-color="#1E81B0"/>
</linearGradient>
</defs>
</svg>
